<?xml version="1.0" encoding="UTF-8"?>
<svg id="Layer_1" xmlns="http://www.w3.org/2000/svg" version="1.1" viewBox="0 0 612 792">
  <!-- Generator: Adobe Illustrator 30.1.0, SVG Export Plug-In . SVG Version: 2.1.1 Build 136)  -->
  <defs>
    <style>
      .st0 {
        font-size: 105.28px;
      }

      .st0, .st1 {
        fill: #231f20;
        font-family: Allotropic-Regular, Allotropic;
      }

      .st2 {
        fill: #fff;
      }

      .st1 {
        font-size: 121.21px;
      }
    </style>
  </defs>
  <rect class="st2" x="193.55" y="438.04" width="26.62" height="181.17"/>
  <g>
    <g>
      <polygon points="215.19 460.54 176.55 421.9 158.6 438 198.48 477.88 215.19 460.54"/>
      <path d="M196.58,479.85l-40.02-40.02-15.1,13.54,41.07,41.07,14.05-14.58ZM166.44,471.09c-1.95-1.95-1.95-5.11,0-7.06s5.11-1.95,7.06,0,1.95,5.11,0,7.06-5.11,1.95-7.06,0Z"/>
      <polygon points="238.83 436 201.95 399.12 178.59 420.07 217.09 458.57 238.83 436"/>
      <polygon points="342.64 328.26 313.49 299.11 275.1 333.53 306.91 365.34 342.64 328.26"/>
      <polygon points="305.01 367.31 273.06 335.36 234.5 369.94 269.12 404.57 305.01 367.31"/>
      <polygon points="180.63 496.41 139.42 455.2 127.78 465.64 169.79 507.65 180.63 496.41"/>
      <path d="M267.22,406.54l-34.77-34.77-28.46,25.52,36.74,36.74,26.49-27.49ZM229.81,407.72c-1.95-1.95-1.95-5.11,0-7.06s5.11-1.95,7.06,0,1.95,5.11,0,7.06-5.11,1.95-7.06,0Z"/>
      <polygon points="167.9 509.63 125.74 467.47 115.31 476.82 158.19 519.7 167.9 509.63"/>
      <polygon points="73.45 514.36 31.71 551.79 80.38 600.46 119.23 560.14 73.45 514.36"/>
      <polygon points="130.83 548.1 85.91 503.18 75.49 512.53 121.13 558.17 130.83 548.1"/>
      <polygon points="143.56 534.88 99.59 490.91 87.95 501.35 132.73 546.13 143.56 534.88"/>
      <polygon points="156.29 521.67 113.27 478.65 101.63 489.08 145.46 532.91 156.29 521.67"/>
    </g>
    <g>
      <rect x="403.5" y="210.2" width="20.13" height="40.93" transform="translate(-41.98 359.99) rotate(-45)"/>
      <polygon points="442.95 281.64 416.78 255.47 387.84 226.53 385.58 224.27 265.12 181.82 235.25 211.69 318.97 295.4 347.91 324.35 420.44 396.88 489.31 328 442.95 281.64"/>
    </g>
  </g>
  <line y1="225.05" x2="-7.75" y2="296.48"/>
  <text class="st1" transform="translate(196.58 573.13) scale(1.12 1)"><tspan x="0" y="0">Forge</tspan></text>
  <text class="st0" transform="translate(269.75 490.91) scale(.95 1)"><tspan x="0" y="0">Fret</tspan></text>
</svg>