<?xml version="1.0" encoding="UTF-8"?>
<svg id="Layer_2" data-name="Layer 2" xmlns="http://www.w3.org/2000/svg" viewBox="0 0 35.04 32.06" fill="#f4a460">
  <defs>
    <style>
      .cls-1 {
        letter-spacing: 0em;
      }

      .cls-2 {
        letter-spacing: -.04em;
      }

      .cls-3 {
        fill: #fff;
      }

      .cls-4 {
        font-size: 8.06px;
      }

      .cls-4, .cls-5 {
        fill: #231f20;
        font-family: Allotropic-Regular, Allotropic;
      }

      .cls-6 {
        letter-spacing: 0em;
      }

      .cls-7 {
        letter-spacing: -.01em;
      }

      .cls-8 {
        letter-spacing: 0em;
      }

      .cls-9 {
        letter-spacing: -.01em;
      }

      .cls-10 {
        letter-spacing: -.01em;
      }

      .cls-11 {
        letter-spacing: 0em;
      }

      .cls-5 {
        font-size: 9.28px;
      }
    </style>
  </defs>
  <g id="Layer_1-2" data-name="Layer 1">
    <rect class="cls-3" x="12.39" y="19.62" width="2.04" height="13.87"/>
    <g>
      <g>
        <polygon points="14.05 21.34 11.09 18.38 9.72 19.62 12.77 22.67 14.05 21.34"/>
        <path d="M12.62,22.82l-3.06-3.06-1.16,1.04,3.14,3.14,1.08-1.12ZM10.32,22.15c-.15-.15-.15-.39,0-.54s.39-.15.54,0,.15.39,0,.54-.39.15-.54,0Z"/>
        <polygon points="15.86 19.46 13.04 16.64 11.25 18.24 14.2 21.19 15.86 19.46"/>
        <polygon points="23.81 11.21 21.58 8.98 18.64 11.62 21.07 14.05 23.81 11.21"/>
        <polygon points="20.93 14.2 18.48 11.76 15.53 14.4 18.18 17.06 20.93 14.2"/>
        <polygon points="11.4 24.09 8.25 20.93 7.36 21.73 10.57 24.95 11.4 24.09"/>
        <path d="M18.03,17.21l-2.66-2.66-2.18,1.95,2.81,2.81,2.03-2.11ZM15.17,17.3c-.15-.15-.15-.39,0-.54s.39-.15.54,0,.15.39,0,.54-.39.15-.54,0Z"/>
        <polygon points="10.43 25.1 7.2 21.87 6.4 22.59 9.69 25.87 10.43 25.1"/>
        <polygon points="3.2 25.46 0 28.33 3.73 32.06 6.7 28.97 3.2 25.46"/>
        <polygon points="7.59 28.05 4.15 24.61 3.35 25.32 6.85 28.82 7.59 28.05"/>
        <polygon points="8.57 27.03 5.2 23.67 4.31 24.47 7.74 27.9 8.57 27.03"/>
        <polygon points="9.54 26.02 6.25 22.73 5.35 23.53 8.71 26.88 9.54 26.02"/>
      </g>
      <g>
        <rect x="28.47" y="2.17" width="1.54" height="3.13" transform="translate(5.92 21.77) rotate(-45)"/>
        <polygon points="31.49 7.64 29.49 5.64 27.27 3.42 27.1 3.25 17.87 0 15.59 2.29 22 8.7 24.21 10.91 29.77 16.47 35.04 11.19 31.49 7.64"/>
      </g>
    </g>
    <text class="cls-5" transform="translate(12.63 29.96) scale(1.12 1)"><tspan class="cls-2" x="0" y="0">F</tspan><tspan class="cls-8" x="3.77" y="0">o</tspan><tspan class="cls-7" x="7.81" y="0">r</tspan><tspan class="cls-10" x="11.04" y="0">g</tspan><tspan class="cls-6" x="15.18" y="0">e</tspan></text>
    <text class="cls-4" transform="translate(18.23 23.67) scale(.95 1)"><tspan x="0" y="0">F</tspan><tspan class="cls-9" x="3.59" y="0">r</tspan><tspan class="cls-11" x="6.38" y="0">e</tspan><tspan class="cls-1" x="9.97" y="0">t</tspan></text>
  </g>
</svg>