<?xml version="1.0" encoding="UTF-8"?>
<!-- Generator: Adobe Illustrator 26.5.0, SVG Export Plug-In . SVG Version: 6.00 Build 0)  -->
<svg xmlns="http://www.w3.org/2000/svg" xmlns:xlink="http://www.w3.org/1999/xlink" version="1.1" id="Ebene_1" x="0px" y="0px" viewBox="0 0 172.3 199.9" style="enable-background:new 0 0 172.3 199.9;" xml:space="preserve">
<style type="text/css">
	.st0{fill:#FFFFFF;}
	.st1{clip-path:url(#SVGID_00000116952396908290874870000010600678772276203443_);fill:none;stroke:#000000;stroke-width:1.2752;}
	.st2{fill:none;stroke:#000000;stroke-width:0.4194;}
	.st3{fill:none;stroke:#000000;stroke-width:0.2097;}
	.st4{clip-path:url(#SVGID_00000135691290872183091670000005232109344933140159_);fill:none;stroke:#000000;stroke-width:0.4194;}
</style>
<g>
	<path class="st0" d="M43,9.5H157c3.5,0,6.4,2.9,6.4,6.4v135.8c0,3.5-2.9,6.4-6.4,6.4H43c-3.5,0-6.4-2.9-6.4-6.4V15.9   C36.6,12.4,39.5,9.5,43,9.5L43,9.5z M43,9.5"></path>
	<g>
		<defs>
			<rect id="SVGID_1_" x="36" y="8.9" width="128" height="186"></rect>
		</defs>
		<clipPath id="SVGID_00000053524170105729696880000005278629466210549400_">
			<use xlink:href="#SVGID_1_" style="overflow:visible;"></use>
		</clipPath>
		
			<path style="clip-path:url(#SVGID_00000053524170105729696880000005278629466210549400_);fill:none;stroke:#000000;stroke-width:1.2752;" d="    M43,9.5H157c3.5,0,6.4,2.9,6.4,6.4v135.8c0,3.5-2.9,6.4-6.4,6.4H43c-3.5,0-6.4-2.9-6.4-6.4V15.9C36.6,12.4,39.5,9.5,43,9.5L43,9.5    z M43,9.5"></path>
	</g>
	<path d="M70.9,128l-2-6.2h1.1l1,3.6l0.4,1.3c0-0.1,0.1-0.5,0.3-1.3l1-3.6H74l1,3.6l0.3,1.2l0.4-1.2l1.1-3.6h1.1l-2.1,6.2h-1.1   l-1-3.7l-0.2-1.1l-1.3,4.8H70.9z M70.9,128"></path>
	<path d="M80.2,128l-2-6.2h1.1l1,3.6l0.4,1.3c0-0.1,0.1-0.5,0.3-1.3l1-3.6h1.1l1,3.6l0.3,1.2l0.4-1.2l1.1-3.6h1.1l-2.1,6.2h-1.1   l-1-3.7l-0.2-1.1l-1.3,4.8H80.2z M80.2,128"></path>
	<path d="M89.4,128l-2-6.2h1.1l1,3.6l0.4,1.3c0-0.1,0.1-0.5,0.3-1.3l1-3.6h1.1l1,3.6l0.3,1.2l0.4-1.2l1.1-3.6h1.1l-2.1,6.2h-1.1   l-1-3.7l-0.3-1.1l-1.3,4.8H89.4z M89.4,128"></path>
	<path d="M96.6,128v-1.2h1.2v1.2H96.6z M96.6,128"></path>
	<path d="M99.7,128v-5.4h-0.9v-0.8h0.9v-0.7c0-0.4,0-0.7,0.1-0.9c0.1-0.3,0.3-0.5,0.6-0.7c0.3-0.2,0.6-0.3,1.1-0.3   c0.3,0,0.6,0,1,0.1l-0.2,0.9c-0.2,0-0.4-0.1-0.6-0.1c-0.3,0-0.6,0.1-0.7,0.2c-0.1,0.1-0.2,0.4-0.2,0.8v0.6h1.3v0.8h-1.3v5.4   L99.7,128L99.7,128z M99.7,128"></path>
	<path d="M102.6,126.1l1.1-0.1c0.1,0.4,0.2,0.7,0.5,1c0.3,0.2,0.7,0.3,1.2,0.3c0.5,0,0.9-0.1,1.1-0.3c0.2-0.2,0.4-0.4,0.4-0.7   c0-0.2-0.1-0.4-0.3-0.6c-0.2-0.1-0.5-0.2-1.1-0.4c-0.8-0.2-1.3-0.4-1.6-0.5c-0.3-0.1-0.6-0.3-0.7-0.6c-0.2-0.3-0.2-0.5-0.2-0.8   c0-0.3,0.1-0.5,0.2-0.8c0.1-0.2,0.3-0.4,0.5-0.6c0.2-0.1,0.4-0.2,0.7-0.3c0.3-0.1,0.6-0.1,0.9-0.1c0.5,0,0.9,0.1,1.3,0.2   c0.4,0.1,0.7,0.3,0.8,0.6c0.2,0.2,0.3,0.6,0.4,1l-1.1,0.1c0-0.3-0.2-0.6-0.4-0.8c-0.2-0.2-0.6-0.3-1-0.3c-0.5,0-0.8,0.1-1.1,0.2   c-0.2,0.2-0.3,0.3-0.3,0.6c0,0.1,0,0.3,0.1,0.4c0.1,0.1,0.2,0.2,0.4,0.3c0.1,0,0.4,0.1,0.9,0.3c0.8,0.2,1.3,0.4,1.6,0.5   c0.3,0.1,0.5,0.3,0.7,0.6c0.2,0.2,0.3,0.5,0.3,0.9c0,0.3-0.1,0.7-0.3,1c-0.2,0.3-0.5,0.6-0.9,0.7c-0.4,0.2-0.9,0.3-1.4,0.3   c-0.8,0-1.5-0.2-1.9-0.5C103,127.2,102.7,126.7,102.6,126.1L102.6,126.1z M102.6,126.1"></path>
	<path d="M113.4,125.7l1.1,0.1c-0.1,0.7-0.4,1.3-0.9,1.7c-0.5,0.4-1.1,0.6-1.8,0.6c-0.9,0-1.6-0.3-2.1-0.8c-0.5-0.6-0.8-1.4-0.8-2.4   c0-0.7,0.1-1.3,0.3-1.8c0.2-0.5,0.6-0.9,1.1-1.1c0.5-0.3,1-0.4,1.5-0.4c0.7,0,1.3,0.2,1.7,0.5c0.4,0.3,0.7,0.8,0.9,1.5l-1.1,0.1   c-0.1-0.4-0.3-0.7-0.5-0.9c-0.3-0.2-0.6-0.3-0.9-0.3c-0.5,0-1,0.2-1.3,0.6c-0.3,0.4-0.5,1-0.5,1.8c0,0.8,0.2,1.4,0.5,1.8   c0.3,0.4,0.8,0.6,1.3,0.6c0.4,0,0.8-0.1,1.1-0.4C113.1,126.6,113.3,126.2,113.4,125.7L113.4,125.7z M113.4,125.7"></path>
	<path d="M115.6,128v-1.2h1.2v1.2H115.6z M115.6,128"></path>
	<path d="M117.9,124.9c0-1.2,0.3-2,1-2.6c0.6-0.5,1.2-0.7,2-0.7c0.9,0,1.6,0.3,2.2,0.8c0.6,0.6,0.8,1.3,0.8,2.3   c0,0.8-0.1,1.4-0.4,1.9c-0.3,0.5-0.6,0.8-1.1,1.1c-0.5,0.2-1,0.4-1.6,0.4c-0.9,0-1.6-0.3-2.2-0.8   C118.1,126.7,117.9,125.9,117.9,124.9L117.9,124.9z M119,124.8c0,0.8,0.2,1.4,0.5,1.8c0.4,0.4,0.8,0.6,1.4,0.6c0.5,0,1-0.2,1.4-0.6   c0.4-0.4,0.5-1,0.5-1.8c0-0.8-0.2-1.4-0.6-1.7c-0.4-0.4-0.8-0.6-1.4-0.6c-0.6,0-1,0.2-1.4,0.6C119.2,123.5,119,124.1,119,124.8   L119,124.8z M119,124.8"></path>
	<path d="M125.2,128v-6.2h1v1c0.3-0.4,0.5-0.7,0.7-0.9c0.2-0.1,0.4-0.2,0.7-0.2c0.4,0,0.7,0.1,1.1,0.3l-0.4,1   c-0.3-0.1-0.5-0.2-0.8-0.2c-0.2,0-0.4,0.1-0.6,0.2c-0.2,0.1-0.3,0.3-0.4,0.6c-0.1,0.4-0.2,0.8-0.2,1.2v3.2L125.2,128L125.2,128z    M125.2,128"></path>
	<path d="M129,128.5l1.1,0.1c0,0.3,0.2,0.6,0.4,0.7c0.3,0.2,0.6,0.3,1.1,0.3c0.5,0,0.9-0.1,1.2-0.3c0.3-0.2,0.5-0.5,0.6-0.8   c0.1-0.2,0.1-0.7,0.1-1.4c-0.5,0.5-1.1,0.8-1.8,0.8c-0.9,0-1.6-0.3-2.1-0.9c-0.5-0.6-0.7-1.4-0.7-2.2c0-0.6,0.1-1.1,0.3-1.6   c0.2-0.5,0.5-0.9,1-1.2c0.4-0.3,0.9-0.4,1.5-0.4c0.8,0,1.4,0.3,1.9,0.9v-0.8h1v5.4c0,1-0.1,1.6-0.3,2.1c-0.2,0.4-0.5,0.7-1,1   c-0.4,0.2-1,0.3-1.6,0.3c-0.8,0-1.4-0.2-1.9-0.5C129.2,129.6,129,129.1,129,128.5L129,128.5z M129.9,124.7c0,0.8,0.2,1.4,0.5,1.8   c0.3,0.4,0.8,0.6,1.3,0.6c0.5,0,0.9-0.2,1.3-0.6c0.3-0.4,0.5-1,0.5-1.8c0-0.8-0.2-1.3-0.5-1.7c-0.3-0.4-0.8-0.6-1.3-0.6   c-0.5,0-0.9,0.2-1.2,0.6C130.1,123.4,129.9,124,129.9,124.7L129.9,124.7z M129.9,124.7"></path>
	<path d="M102.3,19.9c-19.7,0-26.7,29.4-33.2,53.1c-2.3-2.3-9.6-9.2-9.6-9.2c-1.5-1.4-3.1-0.9-4.1,0c-1,1-1.2,2.8,0,3.9   c0.1,0,9.8,9.3,13.2,12.6c0.9,0.9,2.3,1.4,3.6,0.6c1.4-0.8,1.6-2.3,1.6-2.3c11.5-49.5,21.8-53.2,28.5-53.2c5.6,0,12.1,4,12.1,12   c8.4,0,13.6,10.6,6.9,17.1c5.6,2.6,8.1,5.8,8.1,9.8c0,4-3.5,8.2-8.7,8.2c-5.1,0-7.7-3.1-11.7-3.2c-1.8,0-2.9,1.4-2.9,2.8v10h-7.5   v-10c0-1.6-1.2-2.8-2.7-2.8c0,0-0.6,0-0.6,0l-10.1,1.2c-1.2,0.2-2.3,1.4-2.3,2.7c0,1.5,1.3,2.8,3.1,2.8c0.2,0,0.5,0,0.5,0   c0,0,6.4-0.8,6.4-0.8s0,9.8,0,9.9c0,1.3,1.5,2.5,2.8,2.5H109c1.6,0,2.9-1.3,2.9-2.8v-9c2.8,1.6,6.7,2.3,8.7,2.3   c7.5,0,14.7-5.7,14.6-13.9c0-7.5-6-11.3-6-11.3c3.5-9-2.2-17.7-9.6-20.1C116.9,23.5,108.7,19.9,102.3,19.9L102.3,19.9z M102.3,19.9   "></path>
	<path d="M93.9,98.6c0,2.3,2.7,3.7,7.2,5.8c3.5,1.6,5.6,3.3,5.6,4.6c0,2.2-2.5,3-4.7,3c-3.6,0-5.7-1.4-6.8-4.4l-0.1-0.3h-0.3   c-0.6,0-1.1,0-1.4,0.4c-0.2,0.3-0.2,0.7-0.1,1.1c0,0,0.8,3.1,0.8,3.1c0.2,0.8,0.5,0.9,1.8,1.1c0.6,0.1,3.4,0.6,5.9,0.6   c6.8,0,9.8-2.6,9.8-5.3c0-1.9-2-3.7-6.2-5.8l-1.9-0.9c-2.9-1.3-4.7-2.1-4.7-3.5c0-1.4,1.8-2.3,4.4-2.3c3.4,0,4.3,1.8,4.7,3.4   l0.1,0.3h0.3c0.8,0,1.2-0.1,1.5-0.4c0.2-0.2,0.2-0.4,0.2-0.7l-0.3-2.7c-0.1-0.9-0.8-1-1.7-1.2c-1.1-0.2-2.5-0.4-4.6-0.4   C97.4,94.2,93.9,95.9,93.9,98.6L93.9,98.6z M93.9,98.6"></path>
	<path d="M113.4,104.1c0,4.7,4.3,9.5,12.4,9.5c4.1,0,6.4-0.9,8.2-1.8l0.5-0.2l-0.8-0.8l0,0c-0.2-0.2-0.3-0.3-0.6-0.3l-0.4,0.1   c-0.6,0.3-2.5,1.1-5.9,1.1c-4.2,0-8.8-2.6-8.8-8.4c0-5.5,4.9-7.5,9.1-7.5c3,0,4.6,1,4.9,3.2l0,0.4h0.4c0.4,0,1.3,0,1.3-0.7v-3.2   c0-0.8-0.9-0.9-1.4-1l-0.4,0c-1-0.1-1.9-0.2-4.4-0.2C119.4,94.2,113.4,98.4,113.4,104.1L113.4,104.1z M113.4,104.1"></path>
	<path d="M82.7,94.4l-7.3,0.1l-4.9-0.1l-0.7,0c-0.4,0-0.8,0.3-0.8,0.7c0,0.2,0,0.8,0.8,0.8c3,0,3.1,0.2,3.1,1.3l0,0.7l0,2.9v6.2   c0,1,0,2.7-0.1,4c0,0.4,0,0.7-2.7,0.7c-0.7,0-1.2,0.1-1.2,0.8c0,0.2,0,0.7,0.7,0.7l0.2,0c0.3,0,1.1-0.1,5.2-0.1   c4.4,0,5.2,0,5.5,0.1l0.2,0c0.6,0,1.1-0.1,1.1-0.7c0-0.8-0.7-0.8-1.8-0.8c-2.6,0-2.6-0.4-2.7-0.7c-0.1-1.2-0.1-2.9-0.1-4   c0,0,0-1.7,0-2.2c0.6,0,2.2,0,2.2,0c3.4,0,3.8,0.1,4.2,2.6c0.1,0.5,0.6,0.6,1,0.6c0.8,0,0.9-0.4,0.9-0.6l-0.1-0.9   c-0.1-0.5-0.1-1.2-0.1-2.1v-3.8c0-0.6-0.7-0.6-1.1-0.6c-0.6,0-0.8,0.4-1.2,2.2c-0.2,0.7-1.6,1.1-3.8,1.1c0,0-1.4,0-2,0   c0-0.7,0-5.6,0-5.6c0-1.5,0.3-1.5,0.6-1.6c1.3-0.1,4.4-0.2,5.3-0.2c0.9,0,1.7,0.2,2.2,0.5c1.7,1,2.5,1.7,3,2.1   c0.5,0.4,0.8,0.6,1.2,0.6c0.2,0,0.9,0,0.9-0.6c0-0.1-0.1-0.3-0.3-0.8c-0.3-0.6-0.7-1.5-1.3-3c-0.2-0.5-0.7-0.5-1.7-0.5L82.7,94.4z    M82.7,94.4"></path>
	<path d="M126.4,22.7c1.1,0,2,0.4,2.8,1.2c0.8,0.8,1.2,1.7,1.2,2.8c0,1.1-0.4,2-1.2,2.8c-0.8,0.8-1.7,1.2-2.8,1.2   c-1.1,0-2-0.4-2.8-1.2c-0.8-0.8-1.2-1.7-1.2-2.8c0-1.1,0.4-2,1.2-2.8C124.3,23.1,125.3,22.8,126.4,22.7L126.4,22.7z M126.4,30   c0.9,0,1.7-0.3,2.3-1c0.7-0.6,1-1.4,1-2.3c0-0.9-0.3-1.7-1-2.3c-0.6-0.6-1.4-1-2.3-1c-0.9,0-1.7,0.3-2.3,1c-0.6,0.6-1,1.4-1,2.3   c0,0.9,0.3,1.7,1,2.3C124.7,29.7,125.5,30,126.4,30L126.4,30z M128.2,28.9h-0.8c-0.5-1-0.9-1.5-1-1.6c-0.2-0.1-0.4-0.2-0.6-0.2   h-0.4v1.8h-0.7v-4.2h1.5c0.4,0,0.8,0,1,0.1c0.2,0.1,0.4,0.2,0.6,0.4c0.1,0.2,0.2,0.4,0.2,0.7c0,0.3-0.1,0.6-0.3,0.8   c-0.2,0.2-0.5,0.4-0.9,0.4v0c0.3,0.1,0.6,0.4,1,1.1L128.2,28.9z M125.3,26.5h0.8c0.4,0,0.7-0.1,0.8-0.2c0.1-0.1,0.2-0.3,0.2-0.5   c0-0.2-0.1-0.4-0.2-0.5c-0.1-0.1-0.4-0.2-0.9-0.2h-0.8V26.5z M125.3,26.5"></path>
	<path class="st2" d="M126.4,22.7c1.1,0,2,0.4,2.8,1.2c0.8,0.8,1.2,1.7,1.2,2.8s-0.4,2-1.2,2.8c-0.8,0.8-1.7,1.2-2.8,1.2   c-1.1,0-2-0.4-2.8-1.2c-0.8-0.8-1.2-1.7-1.2-2.8c0-1.1,0.4-2,1.2-2.8C124.3,23.1,125.3,22.8,126.4,22.7L126.4,22.7z M126.4,30   c0.9,0,1.7-0.3,2.3-1c0.7-0.6,1-1.4,1-2.3c0-0.9-0.3-1.7-1-2.3c-0.6-0.6-1.4-1-2.3-1c-0.9,0-1.7,0.3-2.3,1c-0.6,0.6-1,1.4-1,2.3   c0,0.9,0.3,1.7,1,2.3C124.7,29.7,125.5,30,126.4,30L126.4,30z M128.2,28.9h-0.8c-0.5-1-0.9-1.5-1-1.6c-0.2-0.1-0.4-0.2-0.6-0.2   h-0.4v1.8h-0.7v-4.2h1.5c0.4,0,0.8,0,1,0.1c0.2,0.1,0.4,0.2,0.6,0.4c0.1,0.2,0.2,0.4,0.2,0.7c0,0.3-0.1,0.6-0.3,0.8   c-0.2,0.2-0.5,0.4-0.9,0.4v0c0.3,0.1,0.6,0.4,1,1.1L128.2,28.9z M125.3,26.5h0.8c0.4,0,0.7-0.1,0.8-0.2c0.1-0.1,0.2-0.3,0.2-0.5   c0-0.2-0.1-0.4-0.2-0.5c-0.1-0.1-0.4-0.2-0.9-0.2h-0.8V26.5z M125.3,26.5"></path>
	<path d="M67.7,141.7h-4.2v2.4h3.6v0.9h-3.6v3.5h-1v-7.7h5.2V141.7z M67.7,141.7"></path>
	<path class="st2" d="M67.7,141.7h-4.2v2.4h3.6v0.9h-3.6v3.5h-1v-7.7h5.2V141.7z M67.7,141.7"></path>
	<path d="M74,143.1c0-0.5-0.2-0.9-0.5-1.1c-0.3-0.2-0.8-0.4-1.3-0.4c-0.5,0-1,0.1-1.3,0.3c-0.3,0.2-0.5,0.5-0.5,0.9   c0,0.3,0.1,0.6,0.4,0.7c0.3,0.2,0.7,0.3,1.5,0.5c0.6,0.1,1.2,0.3,1.6,0.4c0.4,0.1,0.8,0.4,1,0.7c0.3,0.3,0.4,0.7,0.4,1.3   c0,0.7-0.3,1.2-0.8,1.6c-0.5,0.4-1.2,0.7-2.1,0.7c-1.1,0-1.9-0.2-2.4-0.7c-0.5-0.5-0.8-1.1-0.9-1.9l1-0.1c0,0.6,0.3,1.1,0.7,1.3   c0.4,0.3,1,0.4,1.6,0.4c0.6,0,1-0.1,1.4-0.4c0.4-0.2,0.5-0.6,0.5-1c0-0.4-0.2-0.7-0.6-0.9c-0.4-0.2-1-0.4-1.9-0.6   c-0.9-0.2-1.5-0.4-1.9-0.8c-0.4-0.3-0.6-0.8-0.6-1.3c0-0.6,0.2-1.1,0.7-1.5c0.5-0.4,1.1-0.6,2-0.6c0.9,0,1.5,0.2,2.1,0.6   c0.5,0.4,0.8,1,0.8,1.7L74,143.1z M74,143.1"></path>
	<path class="st2" d="M74,143.1c0-0.5-0.2-0.9-0.5-1.1c-0.3-0.2-0.8-0.4-1.3-0.4c-0.5,0-1,0.1-1.3,0.3c-0.3,0.2-0.5,0.5-0.5,0.9   c0,0.3,0.1,0.6,0.4,0.7c0.3,0.2,0.7,0.3,1.5,0.5c0.6,0.1,1.2,0.3,1.6,0.4c0.4,0.1,0.8,0.4,1,0.7c0.3,0.3,0.4,0.7,0.4,1.3   c0,0.7-0.3,1.2-0.8,1.6c-0.5,0.4-1.2,0.7-2.1,0.7c-1.1,0-1.9-0.2-2.4-0.7c-0.5-0.5-0.8-1.1-0.9-1.9l1-0.1c0,0.6,0.3,1.1,0.7,1.3   c0.4,0.3,1,0.4,1.6,0.4c0.6,0,1-0.1,1.4-0.4c0.4-0.2,0.5-0.6,0.5-1c0-0.4-0.2-0.7-0.6-0.9c-0.4-0.2-1-0.4-1.9-0.6   c-0.9-0.2-1.5-0.4-1.9-0.8c-0.4-0.3-0.6-0.8-0.6-1.3c0-0.6,0.2-1.1,0.7-1.5c0.5-0.4,1.1-0.6,2-0.6c0.9,0,1.5,0.2,2.1,0.6   c0.5,0.4,0.8,1,0.8,1.7L74,143.1z M74,143.1"></path>
	<path d="M83.6,146.1c-0.2,0.9-0.6,1.5-1.2,1.9c-0.6,0.4-1.2,0.6-2,0.6c-1.3,0-2.2-0.4-2.8-1.2c-0.6-0.8-0.9-1.7-0.9-2.8   c0-1.2,0.3-2.2,1-2.9c0.7-0.7,1.6-1,2.6-1c0.8,0,1.4,0.2,1.9,0.6c0.5,0.4,0.9,0.9,1.1,1.7l-1,0.2c-0.2-0.5-0.4-0.9-0.8-1.2   c-0.3-0.3-0.8-0.4-1.3-0.4c-0.8,0-1.5,0.3-1.9,0.8c-0.4,0.5-0.7,1.3-0.7,2.2c0,1.1,0.2,1.9,0.7,2.4c0.5,0.5,1.1,0.8,1.8,0.8   c0.6,0,1.1-0.2,1.5-0.5c0.4-0.3,0.6-0.8,0.8-1.5L83.6,146.1z M83.6,146.1"></path>
	<path class="st2" d="M83.6,146.1c-0.2,0.9-0.6,1.5-1.2,1.9c-0.6,0.4-1.2,0.6-2,0.6c-1.3,0-2.2-0.4-2.8-1.2   c-0.6-0.8-0.9-1.7-0.9-2.8c0-1.2,0.3-2.2,1-2.9c0.7-0.7,1.6-1,2.6-1c0.7,0,1.4,0.2,1.9,0.6c0.5,0.4,0.9,0.9,1.1,1.7l-1,0.2   c-0.2-0.5-0.4-0.9-0.8-1.2c-0.3-0.3-0.8-0.4-1.3-0.4c-0.8,0-1.5,0.3-1.9,0.8c-0.4,0.5-0.7,1.3-0.7,2.2c0,1.1,0.2,1.9,0.7,2.4   c0.5,0.5,1.1,0.8,1.8,0.8c0.6,0,1.1-0.2,1.5-0.5c0.4-0.3,0.6-0.8,0.8-1.5L83.6,146.1z M83.6,146.1"></path>
	<path d="M87.2,140.8c0.5,0,1,0.2,1.4,0.6c0.4,0.4,0.6,0.9,0.6,1.4c0,0.5-0.2,1-0.6,1.4c-0.4,0.4-0.9,0.6-1.4,0.6   c-0.5,0-1-0.2-1.4-0.6c-0.4-0.4-0.6-0.9-0.6-1.4s0.2-1,0.6-1.4C86.2,141,86.7,140.8,87.2,140.8L87.2,140.8z M87.2,144.4   c0.5,0,0.8-0.2,1.2-0.5c0.3-0.3,0.5-0.7,0.5-1.2c0-0.5-0.2-0.8-0.5-1.2c-0.3-0.3-0.7-0.5-1.2-0.5c-0.5,0-0.8,0.2-1.2,0.5   c-0.3,0.3-0.5,0.7-0.5,1.2c0,0.5,0.2,0.8,0.5,1.2C86.4,144.3,86.8,144.4,87.2,144.4L87.2,144.4z M88.2,143.9h-0.4   c-0.3-0.5-0.4-0.8-0.5-0.8c-0.1-0.1-0.2-0.1-0.3-0.1h-0.2v0.9h-0.3v-2.1h0.7c0.2,0,0.4,0,0.5,0c0.1,0,0.2,0.1,0.3,0.2   c0.1,0.1,0.1,0.2,0.1,0.3c0,0.1,0,0.3-0.2,0.4c-0.1,0.1-0.3,0.2-0.5,0.2v0c0.1,0,0.3,0.2,0.5,0.5L88.2,143.9z M86.7,142.7h0.4   c0.2,0,0.3,0,0.4-0.1c0.1-0.1,0.1-0.1,0.1-0.2c0-0.1,0-0.2-0.1-0.2c-0.1-0.1-0.2-0.1-0.4-0.1h-0.4V142.7z M86.7,142.7"></path>
	<path class="st3" d="M87.2,140.8c0.5,0,1,0.2,1.4,0.6c0.4,0.4,0.6,0.9,0.6,1.4c0,0.5-0.2,1-0.6,1.4c-0.4,0.4-0.9,0.6-1.4,0.6   c-0.5,0-1-0.2-1.4-0.6c-0.4-0.4-0.6-0.9-0.6-1.4c0-0.5,0.2-1,0.6-1.4C86.2,141,86.7,140.8,87.2,140.8L87.2,140.8z M87.2,144.4   c0.5,0,0.8-0.2,1.2-0.5c0.3-0.3,0.5-0.7,0.5-1.2c0-0.5-0.2-0.8-0.5-1.2c-0.3-0.3-0.7-0.5-1.2-0.5c-0.5,0-0.8,0.2-1.2,0.5   c-0.3,0.3-0.5,0.7-0.5,1.2c0,0.5,0.2,0.8,0.5,1.2C86.4,144.3,86.8,144.4,87.2,144.4L87.2,144.4z M88.2,143.9h-0.4   c-0.3-0.5-0.4-0.8-0.5-0.8c-0.1-0.1-0.2-0.1-0.3-0.1h-0.2v0.9h-0.3v-2.1h0.7c0.2,0,0.4,0,0.5,0c0.1,0,0.2,0.1,0.3,0.2   c0.1,0.1,0.1,0.2,0.1,0.3c0,0.1,0,0.3-0.2,0.4c-0.1,0.1-0.3,0.2-0.5,0.2v0c0.1,0,0.3,0.2,0.5,0.5L88.2,143.9z M86.7,142.7h0.4   c0.2,0,0.3,0,0.4-0.1c0.1-0.1,0.1-0.1,0.1-0.2c0-0.1,0-0.2-0.1-0.2c-0.1-0.1-0.2-0.1-0.4-0.1h-0.4V142.7z M86.7,142.7"></path>
	<path d="M101.4,146.1c-0.2,0.9-0.6,1.5-1.2,1.9c-0.6,0.4-1.2,0.6-2,0.6c-1.3,0-2.2-0.4-2.8-1.2c-0.6-0.8-0.9-1.7-0.9-2.8   c0-1.2,0.3-2.2,1-2.9c0.7-0.7,1.6-1,2.6-1c0.8,0,1.4,0.2,1.9,0.6c0.5,0.4,0.9,0.9,1.1,1.7l-1,0.2c-0.2-0.5-0.4-0.9-0.8-1.2   c-0.3-0.3-0.8-0.4-1.3-0.4c-0.8,0-1.5,0.3-1.9,0.8c-0.4,0.5-0.7,1.3-0.7,2.2c0,1.1,0.2,1.9,0.7,2.4c0.5,0.5,1.1,0.8,1.8,0.8   c0.6,0,1.1-0.2,1.5-0.5c0.4-0.3,0.6-0.8,0.8-1.5L101.4,146.1z M101.4,146.1"></path>
	<path class="st2" d="M101.4,146.1c-0.2,0.9-0.6,1.5-1.2,1.9c-0.6,0.4-1.2,0.6-2,0.6c-1.3,0-2.2-0.4-2.8-1.2   c-0.6-0.8-0.9-1.7-0.9-2.8c0-1.2,0.3-2.2,1-2.9c0.7-0.7,1.6-1,2.6-1c0.8,0,1.4,0.2,1.9,0.6c0.5,0.4,0.9,0.9,1.1,1.7l-1,0.2   c-0.2-0.5-0.4-0.9-0.8-1.2c-0.3-0.3-0.8-0.4-1.3-0.4c-0.8,0-1.5,0.3-1.9,0.8c-0.4,0.5-0.7,1.3-0.7,2.2c0,1.1,0.2,1.9,0.7,2.4   c0.5,0.5,1.1,0.8,1.8,0.8c0.6,0,1.1-0.2,1.5-0.5c0.4-0.3,0.6-0.8,0.8-1.5L101.4,146.1z M101.4,146.1"></path>
	<path d="M105.2,140.8c1.7,0,2.5,1.3,2.5,3.9c0,1.3-0.2,2.3-0.6,3c-0.4,0.6-1.1,1-1.9,1c-1.7,0-2.5-1.3-2.5-3.9c0-1.3,0.2-2.3,0.6-3   C103.8,141.1,104.4,140.8,105.2,140.8L105.2,140.8z M105.2,147.9c0.5,0,0.9-0.2,1.2-0.7c0.3-0.5,0.4-1.3,0.4-2.4   c0-0.8-0.1-1.4-0.2-1.8c-0.1-0.4-0.3-0.8-0.5-1c-0.2-0.2-0.5-0.3-0.9-0.3c-0.5,0-0.9,0.2-1.1,0.8c-0.3,0.5-0.4,1.3-0.4,2.4   c0,0.8,0.1,1.4,0.2,1.8c0.1,0.4,0.3,0.8,0.5,1C104.6,147.8,104.9,147.9,105.2,147.9L105.2,147.9z M105.2,147.9"></path>
	<path class="st2" d="M105.2,140.8c1.7,0,2.5,1.3,2.5,3.9c0,1.3-0.2,2.3-0.6,3c-0.4,0.6-1.1,1-1.9,1c-1.7,0-2.5-1.3-2.5-3.9   c0-1.3,0.2-2.3,0.6-3C103.8,141.1,104.4,140.8,105.2,140.8L105.2,140.8z M105.2,147.9c0.5,0,0.9-0.2,1.2-0.7   c0.3-0.5,0.4-1.3,0.4-2.4c0-0.8-0.1-1.4-0.2-1.8c-0.1-0.4-0.3-0.8-0.5-1c-0.2-0.2-0.5-0.3-0.9-0.3c-0.5,0-0.9,0.3-1.1,0.8   c-0.3,0.5-0.4,1.3-0.4,2.4c0,0.8,0.1,1.4,0.2,1.8c0.1,0.4,0.3,0.8,0.5,1C104.6,147.8,104.9,147.9,105.2,147.9L105.2,147.9z    M105.2,147.9"></path>
	<path d="M114.1,148.5H109c0-0.4,0.2-0.9,0.5-1.3c0.3-0.4,0.9-1,1.7-1.7c0.5-0.4,1-0.8,1.4-1.3c0.4-0.4,0.6-0.9,0.6-1.3   c0-0.4-0.1-0.7-0.4-1c-0.3-0.2-0.6-0.4-1-0.4c-0.4,0-0.8,0.1-1.1,0.4c-0.3,0.3-0.4,0.6-0.4,1.2l-1-0.1c0.1-0.7,0.3-1.3,0.8-1.7   c0.5-0.4,1-0.6,1.7-0.6c0.8,0,1.3,0.2,1.8,0.6c0.4,0.4,0.6,0.9,0.6,1.5c0,0.5-0.2,1-0.5,1.5c-0.4,0.5-1.1,1.2-2.1,2   c-0.6,0.4-0.9,0.8-1.1,1.1h3.8V148.5z M114.1,148.5"></path>
	<path class="st2" d="M114.1,148.5H109c0-0.4,0.2-0.9,0.5-1.3c0.3-0.4,0.9-1,1.7-1.7c0.5-0.4,1-0.8,1.4-1.3c0.4-0.4,0.6-0.9,0.6-1.3   c0-0.4-0.1-0.7-0.4-1c-0.3-0.3-0.6-0.4-1-0.4c-0.4,0-0.8,0.1-1.1,0.4c-0.3,0.3-0.4,0.6-0.4,1.2l-1-0.1c0.1-0.7,0.3-1.3,0.8-1.7   c0.5-0.4,1-0.6,1.7-0.6c0.8,0,1.3,0.2,1.8,0.6c0.4,0.4,0.6,0.9,0.6,1.5c0,0.5-0.2,1-0.5,1.5c-0.4,0.5-1.1,1.2-2.1,2   c-0.6,0.4-0.9,0.8-1.1,1.1h3.8V148.5z M114.1,148.5"></path>
	<path d="M118.1,140.8c1.7,0,2.5,1.3,2.5,3.9c0,1.3-0.2,2.3-0.6,3c-0.4,0.6-1.1,1-1.9,1c-1.7,0-2.5-1.3-2.5-3.9c0-1.3,0.2-2.3,0.6-3   C116.6,141.1,117.3,140.8,118.1,140.8L118.1,140.8z M118.1,147.9c0.5,0,0.9-0.2,1.2-0.7c0.3-0.5,0.4-1.3,0.4-2.4   c0-0.8-0.1-1.4-0.2-1.8c-0.1-0.4-0.3-0.8-0.5-1c-0.2-0.2-0.5-0.3-0.9-0.3c-0.5,0-0.9,0.2-1.1,0.8c-0.3,0.5-0.4,1.3-0.4,2.4   c0,0.8,0.1,1.4,0.2,1.8c0.1,0.4,0.3,0.8,0.5,1C117.5,147.8,117.7,147.9,118.1,147.9L118.1,147.9z M118.1,147.9"></path>
	<path class="st2" d="M118.1,140.8c1.7,0,2.5,1.3,2.5,3.9c0,1.3-0.2,2.3-0.6,3c-0.4,0.6-1.1,1-1.9,1c-1.7,0-2.5-1.3-2.5-3.9   c0-1.3,0.2-2.3,0.6-3C116.6,141.1,117.3,140.8,118.1,140.8L118.1,140.8z M118.1,147.9c0.5,0,0.9-0.2,1.2-0.7   c0.3-0.5,0.4-1.3,0.4-2.4c0-0.8-0.1-1.4-0.2-1.8c-0.1-0.4-0.3-0.8-0.5-1c-0.2-0.2-0.5-0.3-0.9-0.3c-0.5,0-0.9,0.3-1.1,0.8   c-0.3,0.5-0.4,1.3-0.4,2.4c0,0.8,0.1,1.4,0.2,1.8c0.1,0.4,0.3,0.8,0.5,1C117.5,147.8,117.7,147.9,118.1,147.9L118.1,147.9z    M118.1,147.9"></path>
	<path d="M125.6,144.4c0.5,0.1,0.8,0.3,1.1,0.7c0.2,0.4,0.4,0.8,0.4,1.2c0,0.7-0.3,1.3-0.8,1.7c-0.5,0.4-1.1,0.7-1.8,0.7   c-0.7,0-1.2-0.2-1.7-0.6c-0.4-0.4-0.7-0.9-0.8-1.6l0.9-0.1c0.1,0.5,0.3,0.9,0.5,1.1c0.3,0.2,0.6,0.4,1,0.4c0.4,0,0.8-0.2,1.1-0.5   c0.3-0.3,0.5-0.7,0.5-1.1c0-0.4-0.1-0.8-0.4-1.1c-0.3-0.3-0.6-0.4-1.1-0.4c-0.2,0-0.4,0-0.7,0.1l0.1-0.8c0.3,0,0.4,0,0.6,0   c0.1,0,0.3-0.1,0.5-0.2c0.2-0.1,0.3-0.2,0.5-0.4c0.1-0.2,0.2-0.4,0.2-0.7c0-0.4-0.1-0.7-0.4-0.9c-0.2-0.2-0.5-0.3-0.9-0.3   c-0.4,0-0.7,0.1-0.9,0.4c-0.2,0.2-0.4,0.6-0.5,1l-0.9-0.2c0.1-0.7,0.4-1.2,0.8-1.5c0.4-0.3,0.9-0.5,1.5-0.5c0.6,0,1.2,0.2,1.6,0.6   c0.4,0.4,0.6,0.9,0.6,1.4C126.6,143.5,126.3,144,125.6,144.4L125.6,144.4z M125.6,144.4"></path>
	<path class="st2" d="M125.6,144.4c0.5,0.1,0.8,0.3,1.1,0.7c0.2,0.4,0.4,0.8,0.4,1.2c0,0.7-0.3,1.3-0.8,1.7   c-0.5,0.4-1.1,0.7-1.8,0.7c-0.7,0-1.2-0.2-1.7-0.6c-0.4-0.4-0.7-0.9-0.8-1.6l0.9-0.1c0.1,0.5,0.3,0.9,0.5,1.1   c0.2,0.3,0.6,0.4,1,0.4c0.4,0,0.8-0.2,1.1-0.5c0.3-0.3,0.5-0.7,0.5-1.1c0-0.4-0.1-0.8-0.4-1.1c-0.3-0.3-0.6-0.4-1.1-0.4   c-0.2,0-0.4,0-0.7,0.1l0.1-0.8c0.3,0,0.4,0,0.6,0c0.1,0,0.3-0.1,0.5-0.2c0.2-0.1,0.3-0.2,0.5-0.4c0.1-0.2,0.2-0.4,0.2-0.7   c0-0.4-0.1-0.7-0.4-0.9c-0.3-0.2-0.5-0.3-0.9-0.3c-0.4,0-0.7,0.1-0.9,0.4c-0.2,0.2-0.4,0.6-0.5,1l-0.9-0.2c0.1-0.7,0.4-1.2,0.8-1.5   c0.4-0.3,0.9-0.5,1.5-0.5c0.6,0,1.2,0.2,1.6,0.6c0.4,0.4,0.6,0.9,0.6,1.4C126.6,143.5,126.3,144,125.6,144.4L125.6,144.4z    M125.6,144.4"></path>
	<path d="M129.6,143.9c0.5-0.3,1-0.5,1.5-0.5c0.6,0,1.2,0.2,1.7,0.7c0.5,0.4,0.7,1.1,0.7,1.8c0,0.8-0.2,1.4-0.7,1.9   c-0.5,0.5-1.1,0.8-1.9,0.8c-0.6,0-1.2-0.2-1.7-0.5c-0.5-0.4-0.7-0.9-0.8-1.6l1-0.1c0.1,0.5,0.2,0.8,0.5,1.1c0.3,0.2,0.6,0.4,1,0.4   c0.5,0,0.9-0.2,1.2-0.5c0.3-0.4,0.4-0.8,0.4-1.3c0-0.5-0.2-1-0.5-1.3c-0.3-0.3-0.7-0.5-1.2-0.5c-0.6,0-1.1,0.2-1.4,0.7l-0.9-0.1   l0.8-4h3.8v0.9H130L129.6,143.9z M129.6,143.9"></path>
	<path class="st2" d="M129.6,143.9c0.5-0.3,1-0.5,1.5-0.5c0.6,0,1.2,0.2,1.7,0.7c0.5,0.4,0.7,1.1,0.7,1.8c0,0.8-0.2,1.4-0.7,1.9   c-0.5,0.5-1.1,0.8-1.9,0.8c-0.6,0-1.2-0.2-1.7-0.5c-0.5-0.4-0.7-0.9-0.8-1.6l1-0.1c0.1,0.5,0.2,0.8,0.5,1.1c0.3,0.2,0.6,0.4,1,0.4   c0.5,0,0.9-0.2,1.2-0.5c0.3-0.4,0.4-0.8,0.4-1.3c0-0.5-0.2-1-0.5-1.3c-0.3-0.3-0.7-0.5-1.2-0.5c-0.6,0-1.1,0.2-1.4,0.7l-0.9-0.1   l0.8-4h3.8v0.9H130L129.6,143.9z M129.6,143.9"></path>
	<path d="M138.9,144.9c-0.2,0.3-0.4,0.5-0.8,0.7c-0.3,0.2-0.7,0.3-1.1,0.3c-0.6,0-1.2-0.2-1.6-0.7c-0.4-0.5-0.7-1.1-0.7-1.8   c0-0.8,0.2-1.4,0.7-1.9c0.5-0.5,1-0.7,1.7-0.7c0.7,0,1.3,0.3,1.9,0.8c0.5,0.6,0.8,1.5,0.8,2.9c0,1.4-0.2,2.4-0.7,3.1   c-0.5,0.7-1.2,1-2,1c-0.6,0-1.1-0.2-1.5-0.5c-0.4-0.3-0.6-0.8-0.7-1.4l0.9-0.1c0.1,0.8,0.6,1.2,1.3,1.2c0.6,0,1-0.3,1.3-0.8   C138.8,146.6,138.9,145.8,138.9,144.9L138.9,144.9z M137.3,145.1c0.5,0,0.8-0.2,1.1-0.5c0.3-0.3,0.4-0.7,0.4-1.2   c0-0.5-0.1-0.9-0.4-1.3c-0.3-0.3-0.6-0.5-1.1-0.5c-0.4,0-0.8,0.2-1.1,0.5c-0.3,0.4-0.5,0.8-0.5,1.3c0,0.5,0.1,0.9,0.4,1.2   C136.5,144.9,136.9,145.1,137.3,145.1L137.3,145.1z M137.3,145.1"></path>
	<path class="st2" d="M138.9,144.9c-0.2,0.3-0.4,0.5-0.8,0.7c-0.3,0.2-0.7,0.3-1.1,0.3c-0.6,0-1.2-0.2-1.6-0.7   c-0.4-0.5-0.7-1.1-0.7-1.8c0-0.8,0.2-1.4,0.7-1.9c0.5-0.5,1-0.7,1.7-0.7c0.7,0,1.3,0.3,1.9,0.8c0.5,0.6,0.8,1.5,0.8,2.9   c0,1.4-0.2,2.4-0.7,3.1c-0.5,0.7-1.2,1-2,1c-0.6,0-1.1-0.2-1.5-0.5c-0.4-0.3-0.6-0.8-0.7-1.4l0.9-0.1c0.1,0.8,0.6,1.2,1.3,1.2   c0.6,0,1-0.3,1.3-0.8C138.8,146.6,138.9,145.8,138.9,144.9L138.9,144.9z M137.3,145.1c0.5,0,0.8-0.2,1.1-0.5   c0.3-0.3,0.4-0.7,0.4-1.2c0-0.5-0.1-0.9-0.4-1.3c-0.3-0.3-0.6-0.5-1.1-0.5c-0.4,0-0.8,0.2-1.1,0.5c-0.3,0.4-0.5,0.8-0.5,1.3   c0,0.5,0.1,0.9,0.4,1.2C136.5,144.9,136.9,145.1,137.3,145.1L137.3,145.1z M137.3,145.1"></path>
	<path d="M75.5,173h-2.6v6.8h-1V173h-2.5v-0.9h6.1V173z M75.5,173"></path>
	<path class="st2" d="M75.5,173h-2.6v6.8h-1V173h-2.5v-0.9h6.1V173z M75.5,173"></path>
	<path d="M81.4,179.8h-1v-3.5c0-0.5-0.1-0.8-0.3-1c-0.2-0.2-0.5-0.3-0.9-0.3c-0.4,0-0.7,0.1-1,0.4c-0.3,0.3-0.5,0.7-0.5,1.4v3h-0.9   v-7.7h0.9v2.8c0.4-0.5,1-0.8,1.7-0.8c0.4,0,0.7,0.1,1,0.2c0.3,0.1,0.6,0.4,0.7,0.7c0.1,0.3,0.2,0.7,0.2,1.3V179.8z M81.4,179.8"></path>
	<path class="st2" d="M81.4,179.8h-1v-3.5c0-0.5-0.1-0.8-0.3-1c-0.2-0.2-0.5-0.3-0.9-0.3c-0.4,0-0.7,0.1-1,0.4   c-0.3,0.3-0.5,0.7-0.5,1.4v3h-0.9v-7.7h0.9v2.8c0.4-0.5,1-0.8,1.7-0.8c0.4,0,0.7,0.1,1,0.2c0.3,0.1,0.6,0.4,0.7,0.7   c0.1,0.3,0.2,0.7,0.2,1.3V179.8z M81.4,179.8"></path>
	<path d="M88.1,177.2H84c0,0.6,0.2,1.1,0.5,1.4c0.3,0.3,0.7,0.5,1.2,0.5c0.4,0,0.7-0.1,0.9-0.3c0.2-0.2,0.4-0.5,0.6-0.9l1,0.1   c-0.2,0.6-0.4,1-0.9,1.3c-0.4,0.3-0.9,0.5-1.6,0.5c-0.8,0-1.5-0.3-2-0.8c-0.5-0.5-0.7-1.2-0.7-2.1c0-0.9,0.2-1.6,0.7-2.1   c0.5-0.5,1.1-0.8,1.9-0.8c0.4,0,0.8,0.1,1.2,0.3c0.4,0.2,0.7,0.5,1,0.9C88,175.7,88.1,176.3,88.1,177.2L88.1,177.2z M87.2,176.4   c0-0.6-0.2-1-0.5-1.2c-0.3-0.2-0.7-0.4-1-0.4c-0.4,0-0.8,0.1-1.1,0.4c-0.3,0.3-0.5,0.7-0.5,1.2H87.2z M87.2,176.4"></path>
	<path class="st2" d="M88.1,177.2H84c0,0.6,0.2,1.1,0.5,1.4c0.3,0.3,0.7,0.5,1.2,0.5c0.4,0,0.7-0.1,0.9-0.3c0.2-0.2,0.4-0.5,0.6-0.9   l1,0.1c-0.2,0.6-0.4,1-0.9,1.3c-0.4,0.3-0.9,0.5-1.6,0.5c-0.8,0-1.5-0.3-2-0.8c-0.5-0.5-0.7-1.2-0.7-2.1c0-0.9,0.2-1.6,0.7-2.1   c0.5-0.5,1.1-0.8,1.9-0.8c0.4,0,0.8,0.1,1.2,0.3c0.4,0.2,0.7,0.5,1,0.9C88,175.7,88.1,176.3,88.1,177.2L88.1,177.2z M87.2,176.4   c0-0.6-0.2-1-0.5-1.2c-0.3-0.2-0.7-0.4-1-0.4c-0.4,0-0.8,0.1-1.1,0.4c-0.3,0.3-0.5,0.7-0.5,1.2H87.2z M87.2,176.4"></path>
	<path d="M100.7,179.8h-0.9v-3.5c0-0.3,0-0.5-0.1-0.7c0-0.2-0.1-0.3-0.3-0.5c-0.1-0.1-0.4-0.2-0.7-0.2c-0.4,0-0.7,0.1-1,0.4   c-0.3,0.3-0.4,0.7-0.4,1.3v3.2h-0.9v-3.6c0-0.5-0.1-0.8-0.3-1c-0.2-0.2-0.4-0.3-0.7-0.3c-0.4,0-0.7,0.1-1,0.4   c-0.3,0.3-0.4,0.8-0.4,1.6v2.9h-0.9v-5.6h0.9v0.8h0c0.4-0.6,0.9-0.9,1.7-0.9c0.4,0,0.7,0.1,1,0.2c0.3,0.2,0.5,0.4,0.6,0.7   c0.4-0.7,1-1,1.7-1c0.6,0,1,0.2,1.3,0.5c0.3,0.3,0.4,0.8,0.4,1.4V179.8z M100.7,179.8"></path>
	<path class="st2" d="M100.7,179.8h-0.9v-3.5c0-0.3,0-0.5-0.1-0.7c0-0.2-0.1-0.3-0.3-0.5c-0.1-0.1-0.4-0.2-0.7-0.2   c-0.4,0-0.7,0.1-1,0.4c-0.3,0.3-0.4,0.7-0.4,1.3v3.2h-0.9v-3.6c0-0.5-0.1-0.8-0.3-1c-0.2-0.2-0.4-0.3-0.7-0.3c-0.4,0-0.7,0.1-1,0.4   c-0.3,0.3-0.4,0.8-0.4,1.6v2.9h-0.9v-5.6h0.9v0.8h0c0.4-0.6,0.9-0.9,1.7-0.9c0.4,0,0.7,0.1,1,0.2c0.3,0.2,0.5,0.4,0.6,0.7   c0.4-0.7,1-1,1.7-1c0.6,0,1,0.2,1.3,0.5c0.3,0.3,0.4,0.8,0.4,1.4V179.8z M100.7,179.8"></path>
	<path d="M107.4,179.8h-1c-0.1-0.2-0.2-0.4-0.2-0.7c-0.6,0.5-1.3,0.8-2.1,0.8c-0.6,0-1.1-0.1-1.4-0.4c-0.3-0.3-0.5-0.7-0.5-1.2   c0-0.5,0.2-0.8,0.5-1.1c0.3-0.3,0.9-0.5,1.7-0.6l0.9-0.1c0.3-0.1,0.6-0.1,0.8-0.2c0-0.3,0-0.5,0-0.6c0-0.1-0.1-0.2-0.2-0.4   c-0.1-0.1-0.2-0.2-0.4-0.3c-0.2-0.1-0.4-0.1-0.8-0.1c-0.4,0-0.7,0.1-1,0.2c-0.2,0.2-0.4,0.4-0.5,0.8l-0.9-0.1   c0.1-0.6,0.4-1,0.8-1.3c0.4-0.3,1-0.4,1.7-0.4c0.7,0,1.2,0.1,1.5,0.3c0.3,0.2,0.5,0.4,0.6,0.7c0.1,0.3,0.1,0.6,0.1,1.1v1.3   c0,0.8,0,1.3,0,1.6C107.1,179.2,107.2,179.5,107.4,179.8L107.4,179.8z M106.1,177.3V177c-0.5,0.2-1.1,0.3-1.8,0.4   c-0.7,0.1-1.1,0.4-1.1,0.9c0,0.3,0.1,0.5,0.3,0.6c0.2,0.2,0.5,0.2,0.8,0.3c0.5,0,0.9-0.1,1.2-0.4   C105.9,178.5,106.1,178,106.1,177.3L106.1,177.3z M106.1,177.3"></path>
	<path class="st2" d="M107.4,179.8h-1c-0.1-0.2-0.2-0.4-0.2-0.7c-0.6,0.5-1.3,0.8-2.1,0.8c-0.6,0-1.1-0.1-1.4-0.4   c-0.3-0.3-0.5-0.7-0.5-1.2c0-0.5,0.2-0.8,0.5-1.1c0.3-0.3,0.9-0.5,1.7-0.6l0.9-0.1c0.3-0.1,0.6-0.1,0.8-0.2c0-0.3,0-0.5,0-0.6   c0-0.1-0.1-0.2-0.2-0.4c-0.1-0.1-0.2-0.2-0.4-0.3c-0.2-0.1-0.4-0.1-0.8-0.1c-0.4,0-0.7,0.1-1,0.2c-0.2,0.2-0.4,0.4-0.5,0.8   l-0.9-0.1c0.1-0.6,0.4-1,0.8-1.3c0.4-0.3,1-0.4,1.7-0.4c0.7,0,1.2,0.1,1.5,0.3c0.3,0.2,0.5,0.4,0.6,0.7c0.1,0.3,0.1,0.6,0.1,1.1   v1.3c0,0.8,0,1.3,0,1.6C107.1,179.2,107.2,179.5,107.4,179.8L107.4,179.8z M106.1,177.3V177c-0.5,0.2-1.1,0.3-1.8,0.4   c-0.7,0.1-1.1,0.4-1.1,0.9c0,0.3,0.1,0.5,0.3,0.6c0.2,0.2,0.5,0.2,0.8,0.3c0.5,0,0.9-0.1,1.2-0.4   C105.9,178.5,106.1,178,106.1,177.3L106.1,177.3z M106.1,177.3"></path>
	<path d="M111.9,174.4l-0.3,0.9c-0.2-0.1-0.5-0.2-0.7-0.2c-0.4,0-0.6,0.2-0.8,0.5c-0.2,0.3-0.3,0.8-0.3,1.3v2.9h-0.9v-5.6h0.9v0.8h0   c0.3-0.6,0.7-1,1.2-1C111.3,174.1,111.6,174.2,111.9,174.4L111.9,174.4z M111.9,174.4"></path>
	<path class="st2" d="M111.9,174.4l-0.3,0.9c-0.2-0.1-0.5-0.2-0.7-0.2c-0.4,0-0.6,0.2-0.8,0.5c-0.2,0.3-0.3,0.8-0.3,1.3v2.9h-0.9   v-5.6h0.9v0.8h0c0.3-0.6,0.7-1,1.2-1C111.3,174.1,111.6,174.2,111.9,174.4L111.9,174.4z M111.9,174.4"></path>
	<path d="M117.6,179.8h-1.2l-1.9-2.8l-0.7,0.6v2.2h-0.9v-7.7h0.9v4.4l2.2-2.3h1.2l-2.1,2.1L117.6,179.8z M117.6,179.8"></path>
	<path class="st2" d="M117.6,179.8h-1.2l-1.9-2.8l-0.7,0.6v2.2h-0.9v-7.7h0.9v4.4l2.2-2.3h1.2l-2.1,2.1L117.6,179.8z M117.6,179.8"></path>
	<path d="M124.4,174.1c0.8,0,1.4,0.2,1.9,0.7c0.5,0.5,0.7,1.2,0.8,2.1c0,1.1-0.3,1.9-0.8,2.3c-0.5,0.5-1.1,0.7-1.8,0.7   c-0.7,0-1.3-0.2-1.8-0.7c-0.5-0.5-0.8-1.2-0.8-2.2c0-1,0.2-1.7,0.8-2.2C123.1,174.3,123.7,174.1,124.4,174.1L124.4,174.1z    M124.4,179.1c0.5,0,0.9-0.2,1.2-0.6c0.3-0.4,0.4-0.9,0.4-1.6c0-0.7-0.2-1.2-0.5-1.6c-0.3-0.4-0.7-0.5-1.2-0.5   c-0.5,0-0.9,0.2-1.2,0.5c-0.3,0.4-0.5,0.9-0.5,1.6c0,0.7,0.2,1.2,0.5,1.6C123.6,178.9,124,179.1,124.4,179.1L124.4,179.1z    M124.4,179.1"></path>
	<path class="st2" d="M124.4,174.1c0.8,0,1.4,0.2,1.9,0.7c0.5,0.5,0.7,1.2,0.7,2.1c0,1.1-0.3,1.9-0.8,2.3c-0.5,0.5-1.1,0.7-1.8,0.7   c-0.7,0-1.3-0.2-1.8-0.7c-0.5-0.5-0.8-1.2-0.8-2.2c0-1,0.2-1.7,0.8-2.2C123.1,174.3,123.7,174.1,124.4,174.1L124.4,174.1z    M124.4,179.1c0.5,0,1-0.2,1.2-0.6c0.3-0.4,0.4-0.9,0.4-1.6c0-0.7-0.2-1.2-0.5-1.6c-0.3-0.4-0.7-0.5-1.2-0.5   c-0.5,0-0.9,0.2-1.2,0.5c-0.3,0.4-0.5,0.9-0.5,1.6c0,0.7,0.2,1.2,0.5,1.6C123.6,178.9,124,179.1,124.4,179.1L124.4,179.1z    M124.4,179.1"></path>
	<path d="M131.2,172l-0.1,0.8c-0.2,0-0.4-0.1-0.6-0.1c-0.2,0-0.4,0-0.6,0.1c-0.1,0.1-0.2,0.3-0.2,0.7v0.5h1.1v0.7h-1.1v4.8h-0.9   v-4.8h-0.8v-0.7h0.8v-0.6c0-0.3,0-0.5,0.1-0.8c0.1-0.2,0.2-0.4,0.4-0.6c0.2-0.2,0.6-0.3,1-0.3C130.6,171.9,130.9,172,131.2,172   L131.2,172z M131.2,172"></path>
	<path class="st2" d="M131.2,172l-0.1,0.8c-0.2,0-0.4-0.1-0.6-0.1c-0.2,0-0.4,0-0.6,0.1c-0.1,0.1-0.2,0.3-0.2,0.7v0.5h1.1v0.7h-1.1   v4.8h-0.9v-4.8h-0.8v-0.7h0.8v-0.6c0-0.3,0-0.5,0.1-0.8c0.1-0.2,0.2-0.4,0.4-0.6c0.2-0.2,0.6-0.3,1-0.3   C130.6,171.9,130.9,172,131.2,172L131.2,172z M131.2,172"></path>
	<path d="M52.7,186.5l-0.3,0.9c-0.2-0.1-0.5-0.2-0.7-0.2c-0.4,0-0.6,0.2-0.8,0.5c-0.2,0.3-0.3,0.8-0.3,1.3v2.9h-0.9v-5.6h0.9v0.8h0   c0.3-0.6,0.7-1,1.2-1C52.1,186.2,52.4,186.3,52.7,186.5L52.7,186.5z M52.7,186.5"></path>
	<path class="st2" d="M52.7,186.5l-0.3,0.9c-0.2-0.1-0.5-0.2-0.7-0.2c-0.4,0-0.6,0.2-0.8,0.5c-0.2,0.3-0.3,0.8-0.3,1.3v2.9h-0.9   v-5.6h0.9v0.8h0c0.3-0.6,0.7-1,1.2-1C52.1,186.2,52.4,186.3,52.7,186.5L52.7,186.5z M52.7,186.5"></path>
	<path d="M58.6,189.3h-4.2c0,0.6,0.2,1.1,0.5,1.4c0.3,0.3,0.7,0.5,1.2,0.5c0.4,0,0.7-0.1,0.9-0.3c0.2-0.2,0.4-0.5,0.6-0.9l1,0.1   c-0.2,0.6-0.4,1-0.9,1.3c-0.4,0.3-0.9,0.5-1.6,0.5c-0.8,0-1.5-0.3-2-0.8c-0.5-0.5-0.7-1.2-0.7-2.1c0-0.9,0.2-1.6,0.7-2.1   c0.5-0.5,1.1-0.8,1.9-0.8c0.4,0,0.8,0.1,1.2,0.3c0.4,0.2,0.7,0.5,1,0.9C58.4,187.8,58.6,188.4,58.6,189.3L58.6,189.3z M57.6,188.6   c0-0.6-0.2-1-0.5-1.2c-0.3-0.2-0.7-0.4-1-0.4c-0.4,0-0.8,0.1-1.1,0.4c-0.3,0.3-0.5,0.7-0.5,1.2H57.6z M57.6,188.6"></path>
	<path class="st2" d="M58.6,189.3h-4.2c0,0.6,0.2,1.1,0.5,1.4c0.3,0.3,0.7,0.5,1.2,0.5c0.4,0,0.7-0.1,0.9-0.3   c0.2-0.2,0.4-0.5,0.6-0.9l1,0.1c-0.2,0.6-0.4,1-0.9,1.3c-0.4,0.3-0.9,0.5-1.6,0.5c-0.8,0-1.5-0.3-2-0.8c-0.5-0.5-0.7-1.2-0.7-2.1   c0-0.9,0.2-1.6,0.7-2.1c0.5-0.5,1.1-0.8,1.9-0.8c0.4,0,0.8,0.1,1.2,0.3c0.4,0.2,0.7,0.5,1,0.9C58.4,187.8,58.6,188.4,58.6,189.3   L58.6,189.3z M57.6,188.6c0-0.6-0.2-1-0.5-1.2c-0.3-0.2-0.7-0.4-1-0.4c-0.4,0-0.8,0.1-1.1,0.4c-0.3,0.3-0.5,0.7-0.5,1.2H57.6z    M57.6,188.6"></path>
	<path d="M63.2,187.9c0-0.3-0.2-0.5-0.4-0.7c-0.2-0.2-0.5-0.2-0.9-0.2c-0.4,0-0.7,0.1-0.9,0.2c-0.2,0.1-0.3,0.3-0.3,0.5   c0,0.2,0.1,0.4,0.3,0.5c0.2,0.1,0.5,0.2,1.1,0.3c0.6,0.1,1,0.3,1.3,0.4c0.3,0.1,0.5,0.3,0.7,0.5c0.2,0.2,0.2,0.5,0.2,0.9   c0,0.5-0.2,0.9-0.6,1.3c-0.4,0.3-0.9,0.5-1.6,0.5c-0.7,0-1.3-0.1-1.7-0.4c-0.4-0.3-0.6-0.7-0.7-1.3l0.9-0.1c0,0.4,0.2,0.7,0.4,0.9   c0.2,0.2,0.6,0.3,1,0.3c0.4,0,0.7-0.1,1-0.3c0.2-0.2,0.3-0.4,0.3-0.6c0-0.2-0.1-0.3-0.2-0.4c-0.1-0.1-0.2-0.2-0.4-0.2   c-0.2,0-0.5-0.1-1-0.3c-0.8-0.2-1.3-0.4-1.6-0.7c-0.3-0.3-0.4-0.6-0.4-1c0-0.5,0.2-0.8,0.6-1.1c0.4-0.3,0.9-0.5,1.5-0.5   c0.7,0,1.2,0.1,1.6,0.4c0.4,0.3,0.6,0.6,0.7,1.2L63.2,187.9z M63.2,187.9"></path>
	<path class="st2" d="M63.2,187.9c0-0.3-0.2-0.5-0.4-0.7c-0.2-0.2-0.5-0.2-0.9-0.2c-0.4,0-0.7,0.1-0.9,0.2c-0.2,0.1-0.3,0.3-0.3,0.5   c0,0.2,0.1,0.4,0.3,0.5c0.2,0.1,0.5,0.2,1.1,0.3c0.6,0.1,1,0.3,1.3,0.4c0.3,0.1,0.5,0.3,0.7,0.5c0.2,0.2,0.2,0.5,0.2,0.9   c0,0.5-0.2,0.9-0.6,1.3c-0.4,0.3-0.9,0.5-1.6,0.5c-0.7,0-1.3-0.1-1.7-0.4c-0.4-0.3-0.6-0.7-0.7-1.3l0.9-0.1c0,0.4,0.2,0.7,0.4,0.9   c0.2,0.2,0.6,0.3,1,0.3c0.4,0,0.7-0.1,1-0.3c0.2-0.2,0.3-0.4,0.3-0.6c0-0.2,0-0.3-0.2-0.4c-0.1-0.1-0.2-0.2-0.4-0.2   c-0.2,0-0.5-0.1-1-0.3c-0.8-0.2-1.3-0.4-1.6-0.7c-0.3-0.3-0.4-0.6-0.4-1c0-0.5,0.2-0.8,0.6-1.1c0.4-0.3,0.9-0.5,1.5-0.5   c0.7,0,1.2,0.1,1.6,0.4c0.4,0.3,0.6,0.6,0.7,1.2L63.2,187.9z M63.2,187.9"></path>
	<path d="M66.8,187c0.4-0.6,0.9-0.8,1.6-0.8c0.7,0,1.3,0.3,1.7,0.8c0.4,0.5,0.6,1.2,0.6,2.1c0,0.9-0.2,1.6-0.7,2.2   c-0.5,0.5-1,0.8-1.7,0.8c-0.6,0-1.1-0.2-1.4-0.7h0v2.7h-1v-7.7h0.9L66.8,187L66.8,187z M68.3,191.2c0.4,0,0.8-0.2,1.1-0.5   c0.3-0.4,0.4-0.9,0.4-1.6c0-0.7-0.1-1.2-0.4-1.6c-0.3-0.4-0.6-0.5-1.1-0.5c-0.4,0-0.8,0.2-1.1,0.6c-0.3,0.4-0.4,0.9-0.4,1.6   c0,0.7,0.1,1.2,0.4,1.6C67.5,191.1,67.8,191.2,68.3,191.2L68.3,191.2z M68.3,191.2"></path>
	<path class="st2" d="M66.8,187c0.4-0.6,0.9-0.8,1.6-0.8c0.7,0,1.3,0.3,1.7,0.8c0.4,0.5,0.6,1.2,0.6,2.1c0,0.9-0.2,1.6-0.7,2.2   c-0.5,0.5-1,0.8-1.7,0.8c-0.6,0-1.1-0.2-1.4-0.7h0v2.7h-1v-7.7h0.9L66.8,187L66.8,187z M68.3,191.2c0.4,0,0.8-0.2,1.1-0.5   c0.3-0.4,0.4-0.9,0.4-1.6c0-0.7-0.1-1.2-0.4-1.6c-0.3-0.4-0.6-0.5-1.1-0.5c-0.4,0-0.8,0.2-1.1,0.6c-0.3,0.4-0.4,0.9-0.4,1.6   c0,0.7,0.1,1.2,0.4,1.6C67.5,191.1,67.8,191.2,68.3,191.2L68.3,191.2z M68.3,191.2"></path>
	<path d="M74.6,186.2c0.8,0,1.4,0.2,1.9,0.7c0.5,0.5,0.7,1.2,0.7,2.1c0,1.1-0.3,1.9-0.8,2.3c-0.5,0.4-1.1,0.7-1.8,0.7   c-0.7,0-1.3-0.2-1.8-0.7c-0.5-0.5-0.8-1.2-0.8-2.2c0-1,0.3-1.7,0.8-2.2C73.3,186.4,73.9,186.2,74.6,186.2L74.6,186.2z M74.6,191.2   c0.5,0,0.9-0.2,1.2-0.6c0.3-0.4,0.4-0.9,0.4-1.6c0-0.7-0.2-1.2-0.5-1.6c-0.3-0.4-0.7-0.5-1.2-0.5c-0.5,0-0.9,0.2-1.2,0.5   c-0.3,0.4-0.5,0.9-0.5,1.6c0,0.7,0.2,1.2,0.5,1.6C73.8,191,74.1,191.2,74.6,191.2L74.6,191.2z M74.6,191.2"></path>
	<path class="st2" d="M74.6,186.2c0.8,0,1.4,0.2,1.9,0.7c0.5,0.5,0.7,1.2,0.7,2.1c0,1.1-0.3,1.9-0.8,2.3c-0.5,0.4-1.1,0.7-1.8,0.7   c-0.7,0-1.3-0.2-1.8-0.7c-0.5-0.5-0.8-1.2-0.8-2.2c0-1,0.3-1.7,0.8-2.2C73.3,186.4,73.9,186.2,74.6,186.2L74.6,186.2z M74.6,191.2   c0.5,0,0.9-0.2,1.2-0.6c0.3-0.4,0.4-0.9,0.4-1.6c0-0.7-0.2-1.2-0.5-1.6c-0.3-0.4-0.7-0.5-1.2-0.5c-0.5,0-0.9,0.2-1.2,0.5   c-0.3,0.4-0.5,0.9-0.5,1.6c0,0.7,0.2,1.2,0.5,1.6C73.8,191,74.1,191.2,74.6,191.2L74.6,191.2z M74.6,191.2"></path>
	<path d="M83.3,191.9h-1v-3.4c0-0.6-0.1-1-0.3-1.2c-0.2-0.2-0.5-0.3-0.9-0.3c-0.3,0-0.5,0.1-0.8,0.2c-0.3,0.1-0.4,0.3-0.5,0.6   c-0.1,0.2-0.2,0.6-0.2,1.1v3h-0.9v-5.6h0.9v0.8h0c0.2-0.3,0.4-0.5,0.7-0.7c0.3-0.1,0.6-0.2,1-0.2c0.3,0,0.6,0.1,0.9,0.2   c0.3,0.1,0.5,0.3,0.7,0.5c0.2,0.2,0.3,0.4,0.3,0.7c0,0.2,0.1,0.6,0.1,1V191.9z M83.3,191.9"></path>
	<path class="st2" d="M83.3,191.9h-1v-3.4c0-0.6-0.1-1-0.3-1.2c-0.2-0.2-0.5-0.3-0.9-0.3c-0.3,0-0.5,0.1-0.8,0.2   c-0.3,0.1-0.4,0.3-0.5,0.6c-0.1,0.2-0.2,0.6-0.2,1.1v3h-0.9v-5.6h0.9v0.8h0c0.2-0.3,0.4-0.5,0.7-0.7c0.3-0.1,0.6-0.2,1-0.2   c0.3,0,0.6,0.1,0.9,0.2c0.3,0.1,0.5,0.3,0.7,0.5c0.2,0.2,0.3,0.4,0.3,0.7c0,0.2,0.1,0.6,0.1,1V191.9z M83.3,191.9"></path>
	<path d="M88.3,187.9c0-0.3-0.2-0.5-0.4-0.7c-0.2-0.2-0.5-0.2-0.9-0.2c-0.4,0-0.7,0.1-0.9,0.2c-0.2,0.1-0.3,0.3-0.3,0.5   c0,0.2,0.1,0.4,0.3,0.5c0.2,0.1,0.5,0.2,1.1,0.3c0.6,0.1,1,0.3,1.3,0.4c0.3,0.1,0.5,0.3,0.7,0.5c0.2,0.2,0.2,0.5,0.2,0.9   c0,0.5-0.2,0.9-0.6,1.3c-0.4,0.3-0.9,0.5-1.6,0.5c-0.7,0-1.3-0.1-1.7-0.4c-0.4-0.3-0.6-0.7-0.7-1.3l0.9-0.1   c0.1,0.4,0.2,0.7,0.4,0.9c0.2,0.2,0.6,0.3,1,0.3c0.4,0,0.7-0.1,1-0.3s0.3-0.4,0.3-0.6c0-0.2-0.1-0.3-0.2-0.4   c-0.1-0.1-0.2-0.2-0.4-0.2c-0.2,0-0.5-0.1-1-0.3c-0.8-0.2-1.3-0.4-1.6-0.7c-0.2-0.3-0.4-0.6-0.4-1c0-0.5,0.2-0.8,0.6-1.1   c0.4-0.3,0.9-0.5,1.5-0.5c0.7,0,1.2,0.1,1.6,0.4c0.4,0.3,0.6,0.6,0.7,1.2L88.3,187.9z M88.3,187.9"></path>
	<path class="st2" d="M88.3,187.9c0-0.3-0.2-0.5-0.4-0.7c-0.2-0.2-0.5-0.2-0.9-0.2c-0.4,0-0.7,0.1-0.9,0.2c-0.2,0.1-0.3,0.3-0.3,0.5   c0,0.2,0.1,0.4,0.3,0.5c0.2,0.1,0.5,0.2,1.1,0.3c0.6,0.1,1,0.3,1.3,0.4c0.3,0.1,0.5,0.3,0.7,0.5c0.2,0.2,0.2,0.5,0.2,0.9   c0,0.5-0.2,0.9-0.6,1.3c-0.4,0.3-0.9,0.5-1.6,0.5c-0.7,0-1.3-0.1-1.7-0.4c-0.4-0.3-0.6-0.7-0.7-1.3l0.9-0.1   c0.1,0.4,0.2,0.7,0.4,0.9c0.2,0.2,0.6,0.3,1,0.3c0.4,0,0.7-0.1,1-0.3c0.2-0.2,0.3-0.4,0.3-0.6c0-0.2-0.1-0.3-0.2-0.4   c-0.1-0.1-0.2-0.2-0.4-0.2c-0.2,0-0.5-0.1-1-0.3c-0.8-0.2-1.3-0.4-1.6-0.7c-0.2-0.3-0.4-0.6-0.4-1c0-0.5,0.2-0.8,0.6-1.1   c0.4-0.3,0.9-0.5,1.5-0.5c0.7,0,1.2,0.1,1.6,0.4c0.4,0.3,0.6,0.6,0.7,1.2L88.3,187.9z M88.3,187.9"></path>
	<path d="M91.9,191.9H91v-5.6h0.9V191.9z M91.9,185.3H91v-1.1h0.9V185.3z M91.9,185.3"></path>
	<path class="st2" d="M91.9,191.9H91v-5.6h0.9V191.9z M91.9,185.3H91v-1.1h0.9V185.3z M91.9,185.3"></path>
	<path d="M94.8,186.9c0.4-0.5,0.9-0.8,1.5-0.8c0.7,0,1.3,0.3,1.7,0.8c0.4,0.5,0.6,1.2,0.6,2c0,1-0.2,1.7-0.7,2.2   c-0.5,0.5-1,0.8-1.7,0.8c-0.7,0-1.2-0.3-1.5-0.8h0v0.7h-0.9v-7.7h0.9L94.8,186.9L94.8,186.9z M96.2,191.2c0.4,0,0.8-0.2,1.1-0.6   s0.4-0.9,0.4-1.6c0-0.7-0.1-1.2-0.4-1.6c-0.3-0.4-0.6-0.6-1.1-0.6c-0.5,0-0.8,0.2-1.1,0.6c-0.3,0.4-0.4,0.9-0.4,1.5   c0,0.6,0.1,1,0.2,1.3c0.1,0.2,0.3,0.5,0.5,0.7C95.6,191.1,95.9,191.2,96.2,191.2L96.2,191.2z M96.2,191.2"></path>
	<path class="st2" d="M94.8,186.9c0.4-0.5,0.9-0.8,1.5-0.8c0.7,0,1.3,0.3,1.7,0.8c0.4,0.5,0.6,1.2,0.6,2c0,1-0.2,1.7-0.7,2.2   c-0.5,0.5-1,0.8-1.7,0.8c-0.7,0-1.2-0.3-1.5-0.8h0v0.7h-0.9v-7.7h0.9L94.8,186.9L94.8,186.9z M96.2,191.2c0.4,0,0.8-0.2,1.1-0.6   c0.3-0.4,0.4-0.9,0.4-1.6c0-0.7-0.1-1.2-0.4-1.6c-0.3-0.4-0.6-0.6-1.1-0.6c-0.5,0-0.8,0.2-1.1,0.6c-0.3,0.4-0.4,0.9-0.4,1.5   c0,0.6,0.1,1,0.2,1.3c0.1,0.3,0.3,0.5,0.5,0.7C95.6,191.1,95.9,191.2,96.2,191.2L96.2,191.2z M96.2,191.2"></path>
	<rect x="100.2" y="184.2" width="0.9" height="7.7"></rect>
	<rect x="100.2" y="184.2" class="st2" width="0.9" height="7.7"></rect>
	<path d="M107.9,189.3h-4.2c0,0.6,0.2,1.1,0.5,1.4c0.3,0.3,0.7,0.5,1.2,0.5c0.4,0,0.7-0.1,0.9-0.3c0.2-0.2,0.4-0.5,0.6-0.9l1,0.1   c-0.2,0.6-0.4,1-0.9,1.3c-0.4,0.3-0.9,0.5-1.6,0.5c-0.8,0-1.5-0.3-2-0.8c-0.5-0.5-0.7-1.2-0.7-2.1c0-0.9,0.2-1.6,0.7-2.1   c0.5-0.5,1.1-0.8,1.9-0.8c0.4,0,0.8,0.1,1.2,0.3c0.4,0.2,0.7,0.5,1,0.9C107.8,187.8,107.9,188.4,107.9,189.3L107.9,189.3z    M106.9,188.6c0-0.6-0.2-1-0.5-1.2c-0.3-0.2-0.7-0.4-1-0.4c-0.4,0-0.8,0.1-1.1,0.4c-0.3,0.3-0.5,0.7-0.5,1.2H106.9z M106.9,188.6"></path>
	<path class="st2" d="M107.9,189.3h-4.2c0,0.6,0.2,1.1,0.5,1.4c0.3,0.3,0.7,0.5,1.2,0.5c0.4,0,0.7-0.1,0.9-0.3   c0.2-0.2,0.4-0.5,0.6-0.9l1,0.1c-0.2,0.6-0.4,1-0.9,1.3c-0.4,0.3-0.9,0.5-1.6,0.5c-0.8,0-1.5-0.3-2-0.8c-0.5-0.5-0.7-1.2-0.7-2.1   c0-0.9,0.2-1.6,0.7-2.1c0.5-0.5,1.1-0.8,1.9-0.8c0.4,0,0.8,0.1,1.2,0.3c0.4,0.2,0.7,0.5,1,0.9C107.8,187.8,107.9,188.4,107.9,189.3   L107.9,189.3z M106.9,188.6c0-0.6-0.2-1-0.5-1.2c-0.3-0.2-0.7-0.4-1-0.4c-0.4,0-0.8,0.1-1.1,0.4c-0.3,0.3-0.5,0.7-0.5,1.2H106.9z    M106.9,188.6"></path>
	<path d="M115.5,184.2l-0.1,0.8c-0.2,0-0.4-0.1-0.6-0.1c-0.2,0-0.4,0-0.6,0.1c-0.1,0.1-0.2,0.3-0.2,0.7v0.5h1.1v0.7H114v4.8h-0.9   V187h-0.8v-0.7h0.8v-0.6c0-0.3,0-0.5,0.1-0.8c0.1-0.2,0.2-0.4,0.4-0.6c0.2-0.2,0.6-0.3,1-0.3C114.9,184.1,115.2,184.1,115.5,184.2   L115.5,184.2z M115.5,184.2"></path>
	<path class="st2" d="M115.5,184.2l-0.1,0.8c-0.2,0-0.4-0.1-0.6-0.1c-0.2,0-0.4,0-0.6,0.1c-0.1,0.1-0.2,0.3-0.2,0.7v0.5h1.1v0.7H114   v4.8h-0.9V187h-0.8v-0.7h0.8v-0.6c0-0.3,0-0.5,0.1-0.8c0.1-0.2,0.2-0.4,0.4-0.6c0.2-0.2,0.6-0.3,1-0.3   C114.9,184.1,115.2,184.1,115.5,184.2L115.5,184.2z M115.5,184.2"></path>
	<path d="M118.6,186.2c0.8,0,1.4,0.2,1.9,0.7c0.5,0.5,0.7,1.2,0.8,2.1c0,1.1-0.3,1.9-0.8,2.3c-0.5,0.4-1.1,0.7-1.8,0.7   c-0.7,0-1.3-0.2-1.8-0.7c-0.5-0.5-0.8-1.2-0.8-2.2c0-1,0.3-1.7,0.8-2.2C117.2,186.4,117.8,186.2,118.6,186.2L118.6,186.2z    M118.6,191.2c0.5,0,0.9-0.2,1.2-0.6c0.3-0.4,0.4-0.9,0.4-1.6c0-0.7-0.2-1.2-0.5-1.6c-0.3-0.4-0.7-0.5-1.2-0.5   c-0.5,0-0.9,0.2-1.2,0.5c-0.3,0.4-0.5,0.9-0.5,1.6c0,0.7,0.2,1.2,0.5,1.6C117.7,191,118.1,191.2,118.6,191.2L118.6,191.2z    M118.6,191.2"></path>
	<path class="st2" d="M118.6,186.2c0.8,0,1.4,0.2,1.9,0.7c0.5,0.5,0.7,1.2,0.8,2.1c0,1.1-0.3,1.9-0.8,2.3c-0.5,0.4-1.1,0.7-1.8,0.7   c-0.7,0-1.3-0.2-1.8-0.7c-0.5-0.5-0.8-1.2-0.8-2.2c0-1,0.3-1.7,0.8-2.2C117.2,186.4,117.8,186.2,118.6,186.2L118.6,186.2z    M118.6,191.2c0.5,0,0.9-0.2,1.2-0.6c0.3-0.4,0.4-0.9,0.4-1.6c0-0.7-0.2-1.2-0.5-1.6c-0.3-0.4-0.7-0.5-1.2-0.5   c-0.5,0-0.9,0.2-1.2,0.5c-0.3,0.4-0.5,0.9-0.5,1.6c0,0.7,0.2,1.2,0.5,1.6C117.7,191,118.1,191.2,118.6,191.2L118.6,191.2z    M118.6,191.2"></path>
	<path d="M125.7,186.5l-0.3,0.9c-0.2-0.1-0.5-0.2-0.7-0.2c-0.4,0-0.6,0.2-0.8,0.5c-0.2,0.3-0.3,0.8-0.3,1.3v2.9h-0.9v-5.6h0.9v0.8h0   c0.3-0.6,0.7-1,1.2-1C125.1,186.2,125.4,186.3,125.7,186.5L125.7,186.5z M125.7,186.5"></path>
	<path class="st2" d="M125.7,186.5l-0.3,0.9c-0.2-0.1-0.5-0.2-0.7-0.2c-0.4,0-0.6,0.2-0.8,0.5c-0.2,0.3-0.3,0.8-0.3,1.3v2.9h-0.9   v-5.6h0.9v0.8h0c0.3-0.6,0.7-1,1.2-1C125.1,186.2,125.4,186.3,125.7,186.5L125.7,186.5z M125.7,186.5"></path>
	<path d="M131.6,189.3h-4.2c0,0.6,0.2,1.1,0.5,1.4c0.3,0.3,0.7,0.5,1.2,0.5c0.4,0,0.7-0.1,0.9-0.3c0.2-0.2,0.4-0.5,0.6-0.9l1,0.1   c-0.2,0.6-0.4,1-0.9,1.3c-0.4,0.3-0.9,0.5-1.6,0.5c-0.8,0-1.5-0.3-2-0.8c-0.5-0.5-0.7-1.2-0.7-2.1c0-0.9,0.2-1.6,0.7-2.1   c0.5-0.5,1.1-0.8,1.9-0.8c0.4,0,0.8,0.1,1.2,0.3c0.4,0.2,0.7,0.5,1,0.9C131.4,187.8,131.6,188.4,131.6,189.3L131.6,189.3z    M130.6,188.6c0-0.6-0.2-1-0.5-1.2c-0.3-0.2-0.7-0.4-1-0.4c-0.4,0-0.8,0.1-1.1,0.4c-0.3,0.3-0.5,0.7-0.5,1.2H130.6z M130.6,188.6"></path>
	<path class="st2" d="M131.6,189.3h-4.2c0,0.6,0.2,1.1,0.5,1.4c0.3,0.3,0.7,0.5,1.2,0.5c0.4,0,0.7-0.1,0.9-0.3   c0.2-0.2,0.4-0.5,0.6-0.9l1,0.1c-0.2,0.6-0.4,1-0.9,1.3c-0.4,0.3-0.9,0.5-1.6,0.5c-0.8,0-1.5-0.3-2-0.8c-0.5-0.5-0.7-1.2-0.7-2.1   c0-0.9,0.2-1.6,0.7-2.1c0.5-0.5,1.1-0.8,1.9-0.8c0.4,0,0.8,0.1,1.2,0.3c0.4,0.2,0.7,0.5,1,0.9C131.4,187.8,131.6,188.4,131.6,189.3   L131.6,189.3z M130.6,188.6c0-0.6-0.2-1-0.5-1.2c-0.3-0.2-0.7-0.4-1-0.4c-0.4,0-0.8,0.1-1.1,0.4c-0.3,0.3-0.5,0.7-0.5,1.2H130.6z    M130.6,188.6"></path>
	<path d="M136.2,187.9c0-0.3-0.2-0.5-0.4-0.7c-0.2-0.2-0.5-0.2-0.9-0.2c-0.4,0-0.7,0.1-0.9,0.2c-0.2,0.1-0.3,0.3-0.3,0.5   c0,0.2,0.1,0.4,0.3,0.5c0.2,0.1,0.5,0.2,1.1,0.3c0.6,0.1,1,0.3,1.3,0.4c0.3,0.1,0.5,0.3,0.7,0.5c0.2,0.2,0.2,0.5,0.2,0.9   c0,0.5-0.2,0.9-0.6,1.3c-0.4,0.3-1,0.5-1.6,0.5c-0.7,0-1.3-0.1-1.7-0.4c-0.4-0.3-0.6-0.7-0.7-1.3l0.9-0.1c0.1,0.4,0.2,0.7,0.4,0.9   c0.2,0.2,0.6,0.3,1,0.3c0.4,0,0.7-0.1,1-0.3c0.2-0.2,0.3-0.4,0.3-0.6c0-0.2,0-0.3-0.2-0.4c-0.1-0.1-0.2-0.2-0.4-0.2   c-0.1,0-0.5-0.1-1-0.3c-0.8-0.2-1.3-0.4-1.6-0.7c-0.3-0.3-0.4-0.6-0.4-1c0-0.5,0.2-0.8,0.6-1.1c0.4-0.3,0.9-0.5,1.5-0.5   c0.7,0,1.2,0.1,1.6,0.4c0.4,0.3,0.6,0.6,0.7,1.2L136.2,187.9z M136.2,187.9"></path>
	<path class="st2" d="M136.2,187.9c0-0.3-0.2-0.5-0.4-0.7c-0.2-0.2-0.5-0.2-0.9-0.2c-0.4,0-0.7,0.1-0.9,0.2   c-0.2,0.1-0.3,0.3-0.3,0.5c0,0.2,0.1,0.4,0.3,0.5c0.2,0.1,0.5,0.2,1.1,0.3c0.6,0.1,1,0.3,1.3,0.4c0.3,0.1,0.5,0.3,0.7,0.5   c0.2,0.2,0.2,0.5,0.2,0.9c0,0.5-0.2,0.9-0.6,1.3c-0.4,0.3-1,0.5-1.6,0.5c-0.7,0-1.3-0.1-1.7-0.4c-0.4-0.3-0.6-0.7-0.7-1.3l0.9-0.1   c0.1,0.4,0.2,0.7,0.4,0.9c0.2,0.2,0.6,0.3,1,0.3c0.4,0,0.7-0.1,1-0.3c0.2-0.2,0.3-0.4,0.3-0.6c0-0.2,0-0.3-0.2-0.4   c-0.1-0.1-0.2-0.2-0.4-0.2c-0.1,0-0.5-0.1-1-0.3c-0.8-0.2-1.3-0.4-1.6-0.7c-0.3-0.3-0.4-0.6-0.4-1c0-0.5,0.2-0.8,0.6-1.1   c0.4-0.3,0.9-0.5,1.5-0.5c0.7,0,1.2,0.1,1.6,0.4c0.4,0.3,0.6,0.6,0.7,1.2L136.2,187.9z M136.2,187.9"></path>
	<path d="M141.1,191.9c-0.3,0.1-0.5,0.1-0.7,0.1c-0.4,0-0.7-0.1-0.9-0.2c-0.2-0.1-0.3-0.3-0.3-0.6c0-0.2-0.1-0.5-0.1-0.9V187h-0.7   v-0.7h0.7v-1.4l0.9-0.6v2h0.9v0.7H140v3.3c0,0.3,0,0.5,0.1,0.6c0.1,0.1,0.2,0.2,0.4,0.2c0.1,0,0.3,0,0.4,0L141.1,191.9z    M141.1,191.9"></path>
	<path class="st2" d="M141.1,191.9c-0.3,0.1-0.5,0.1-0.7,0.1c-0.4,0-0.7-0.1-0.9-0.2c-0.2-0.1-0.3-0.3-0.3-0.6   c0-0.2-0.1-0.5-0.1-0.9V187h-0.7v-0.7h0.7v-1.4l0.9-0.6v2h0.9v0.7H140v3.3c0,0.3,0,0.5,0.1,0.6c0.1,0.1,0.2,0.2,0.4,0.2   c0.1,0,0.3,0,0.4,0L141.1,191.9z M141.1,191.9"></path>
	<path d="M145.4,186.5l-0.3,0.9c-0.2-0.1-0.5-0.2-0.7-0.2c-0.4,0-0.6,0.2-0.8,0.5c-0.2,0.3-0.3,0.8-0.3,1.3v2.9h-0.9v-5.6h0.9v0.8h0   c0.3-0.6,0.7-1,1.2-1C144.7,186.2,145,186.3,145.4,186.5L145.4,186.5z M145.4,186.5"></path>
	<path class="st2" d="M145.4,186.5l-0.3,0.9c-0.2-0.1-0.5-0.2-0.7-0.2c-0.4,0-0.6,0.2-0.8,0.5c-0.2,0.3-0.3,0.8-0.3,1.3v2.9h-0.9   v-5.6h0.9v0.8h0c0.3-0.6,0.7-1,1.2-1C144.7,186.2,145,186.3,145.4,186.5L145.4,186.5z M145.4,186.5"></path>
	<path d="M150.9,186.3l-2.1,5.7c0,0,0,0,0,0c-0.2,0.6-0.4,1.1-0.7,1.5c-0.3,0.4-0.7,0.6-1.2,0.6c-0.2,0-0.4,0-0.6-0.1l-0.1-0.9   c0.2,0.1,0.4,0.1,0.5,0.1c0.4,0,0.6-0.1,0.7-0.3c0.1-0.2,0.3-0.5,0.5-1l-2.1-5.6h1l1.3,3.6c0.1,0.2,0.2,0.5,0.2,0.9h0   c0.1-0.4,0.2-0.8,0.3-1.2l1.2-3.3H150.9z M150.9,186.3"></path>
	<g>
		<defs>
			<rect id="SVGID_00000065037537669341298630000016174070033825044670_" x="36" y="8.9" width="128" height="186"></rect>
		</defs>
		<clipPath id="SVGID_00000140714810081415076060000005318094914853138854_">
			<use xlink:href="#SVGID_00000065037537669341298630000016174070033825044670_" style="overflow:visible;"></use>
		</clipPath>
		
			<path style="clip-path:url(#SVGID_00000140714810081415076060000005318094914853138854_);fill:none;stroke:#000000;stroke-width:0.4194;" d="    M150.9,186.3l-2.1,5.7c0,0,0,0,0,0c-0.2,0.6-0.4,1.1-0.7,1.5c-0.3,0.4-0.7,0.6-1.2,0.6c-0.2,0-0.4,0-0.6-0.1l-0.1-0.9    c0.2,0.1,0.4,0.1,0.5,0.1c0.4,0,0.6-0.1,0.7-0.3c0.1-0.2,0.3-0.5,0.5-1l-2.1-5.6h1l1.3,3.6c0.1,0.2,0.2,0.5,0.3,0.9h0    c0.1-0.4,0.2-0.8,0.3-1.2l1.2-3.3H150.9z M150.9,186.3"></path>
	</g>
</g>
</svg>
